<svg xmlns="http://www.w3.org/2000/svg" xmlns:xlink="http://www.w3.org/1999/xlink" width="500"
    zoomAndPan="magnify" viewBox="0 0 375 374.999991" height="500"
    preserveAspectRatio="xMidYMid meet" version="1.0">
    <defs>
        <clipPath id="582d5c74c0">
            <path
                d="M 75 0 L 300 0 C 341.421875 0 375 33.578125 375 75 L 375 300 C 375 341.421875 341.421875 375 300 375 L 75 375 C 33.578125 375 0 341.421875 0 300 L 0 75 C 0 33.578125 33.578125 0 75 0 Z M 75 0 "
                clip-rule="nonzero" />
        </clipPath>
        <clipPath id="2c86ef1aa4">
            <path d="M 100 37.5 L 337.5 37.5 L 337.5 275 L 100 275 Z M 100 37.5 "
                clip-rule="nonzero" />
        </clipPath>
        <clipPath id="a17b3aebb8">
            <path d="M 37.5 279 L 203 279 L 203 334.5 L 37.5 334.5 Z M 37.5 279 "
                clip-rule="nonzero" />
        </clipPath>
    </defs>
    <g clip-path="url(#582d5c74c0)">
        <rect x="-37.5" width="450" fill="#13a800" y="-37.499999" height="449.999989"
            fill-opacity="1" />
    </g>
    <path fill="#ffffff"
        d="M 47.167969 311.546875 L 192.898438 311.546875 L 192.898438 325.480469 L 47.167969 325.480469 Z M 47.167969 311.546875 "
        fill-opacity="1" fill-rule="nonzero" />
    <path fill="#ffffff"
        d="M 171.996094 302.253906 L 68.070312 302.253906 C 68.324219 301.265625 68.660156 300.300781 69.074219 299.367188 C 69.492188 298.433594 69.980469 297.535156 70.542969 296.683594 C 71.105469 295.828125 71.734375 295.023438 72.429688 294.273438 C 73.125 293.523438 73.875 292.835938 74.683594 292.210938 C 75.496094 291.582031 76.347656 291.027344 77.25 290.542969 C 78.152344 290.058594 79.085938 289.648438 80.054688 289.320312 C 81.023438 288.988281 82.011719 288.738281 83.019531 288.570312 C 84.027344 288.402344 85.046875 288.320312 86.070312 288.320312 L 154 288.320312 C 155.023438 288.320312 156.039062 288.402344 157.046875 288.570312 C 158.058594 288.738281 159.046875 288.988281 160.015625 289.320312 C 160.980469 289.648438 161.917969 290.058594 162.816406 290.542969 C 163.71875 291.027344 164.574219 291.582031 165.382812 292.210938 C 166.191406 292.835938 166.945312 293.523438 167.636719 294.273438 C 168.332031 295.023438 168.964844 295.828125 169.527344 296.683594 C 170.089844 297.535156 170.578125 298.433594 170.992188 299.367188 C 171.40625 300.300781 171.742188 301.265625 171.996094 302.253906 Z M 171.996094 302.253906 "
        fill-opacity="1" fill-rule="nonzero" />
    <path fill="#ffffff"
        d="M 171.953125 199.246094 C 172.273438 199.566406 172.566406 199.921875 172.820312 200.300781 C 173.074219 200.679688 173.289062 201.082031 173.464844 201.507812 C 173.640625 201.929688 173.769531 202.363281 173.859375 202.8125 C 173.949219 203.261719 173.996094 203.714844 173.996094 204.175781 C 173.996094 204.632812 173.949219 205.085938 173.859375 205.535156 C 173.769531 205.984375 173.640625 206.417969 173.464844 206.84375 C 173.289062 207.265625 173.074219 207.667969 172.820312 208.046875 C 172.566406 208.429688 172.273438 208.78125 171.953125 209.101562 L 167.679688 213.363281 C 167.355469 213.6875 167.003906 213.976562 166.621094 214.230469 C 166.242188 214.484375 165.839844 214.699219 165.417969 214.875 C 164.996094 215.046875 164.5625 215.179688 164.113281 215.269531 C 163.664062 215.359375 163.210938 215.402344 162.753906 215.402344 C 162.296875 215.402344 161.84375 215.359375 161.394531 215.269531 C 160.949219 215.179688 160.511719 215.046875 160.089844 214.875 C 159.667969 214.699219 159.265625 214.484375 158.886719 214.230469 C 158.507812 213.976562 158.15625 213.6875 157.832031 213.363281 L 111.523438 167.066406 C 111.199219 166.746094 110.910156 166.390625 110.65625 166.011719 C 110.398438 165.632812 110.183594 165.230469 110.011719 164.804688 C 109.835938 164.382812 109.703125 163.949219 109.613281 163.5 C 109.523438 163.050781 109.480469 162.597656 109.480469 162.136719 C 109.480469 161.679688 109.523438 161.226562 109.613281 160.777344 C 109.703125 160.328125 109.835938 159.894531 110.011719 159.46875 C 110.183594 159.046875 110.398438 158.644531 110.65625 158.265625 C 110.910156 157.882812 111.199219 157.53125 111.523438 157.210938 L 115.796875 152.9375 C 116.117188 152.613281 116.46875 152.324219 116.851562 152.070312 C 117.230469 151.816406 117.632812 151.601562 118.054688 151.425781 C 118.476562 151.253906 118.914062 151.121094 119.359375 151.03125 C 119.808594 150.941406 120.261719 150.898438 120.71875 150.898438 C 121.175781 150.898438 121.628906 150.941406 122.078125 151.03125 C 122.523438 151.121094 122.960938 151.253906 123.382812 151.425781 C 123.804688 151.601562 124.207031 151.816406 124.585938 152.070312 C 124.96875 152.324219 125.320312 152.613281 125.640625 152.9375 Z M 171.953125 199.246094 "
        fill-opacity="1" fill-rule="nonzero" />
    <path fill="#ffffff"
        d="M 276.066406 95.128906 C 276.390625 95.453125 276.679688 95.804688 276.933594 96.1875 C 277.1875 96.566406 277.402344 96.96875 277.578125 97.390625 C 277.753906 97.816406 277.886719 98.25 277.976562 98.699219 C 278.0625 99.148438 278.109375 99.601562 278.109375 100.058594 C 278.109375 100.519531 278.0625 100.972656 277.976562 101.421875 C 277.886719 101.871094 277.753906 102.304688 277.578125 102.726562 C 277.402344 103.152344 277.1875 103.554688 276.933594 103.933594 C 276.679688 104.3125 276.390625 104.664062 276.066406 104.988281 L 271.792969 109.25 C 271.46875 109.574219 271.117188 109.863281 270.734375 110.117188 C 270.355469 110.375 269.953125 110.589844 269.53125 110.761719 C 269.109375 110.9375 268.671875 111.070312 268.222656 111.160156 C 267.773438 111.25 267.320312 111.292969 266.863281 111.292969 C 266.40625 111.292969 265.953125 111.25 265.503906 111.160156 C 265.054688 111.070312 264.617188 110.9375 264.195312 110.761719 C 263.773438 110.589844 263.371094 110.375 262.988281 110.117188 C 262.609375 109.863281 262.257812 109.574219 261.933594 109.25 L 215.636719 62.953125 C 215.3125 62.628906 215.023438 62.277344 214.769531 61.898438 C 214.515625 61.515625 214.300781 61.117188 214.125 60.691406 C 213.949219 60.269531 213.816406 59.832031 213.726562 59.382812 C 213.636719 58.9375 213.59375 58.480469 213.59375 58.023438 C 213.59375 57.566406 213.636719 57.113281 213.726562 56.664062 C 213.816406 56.214844 213.949219 55.777344 214.125 55.355469 C 214.300781 54.933594 214.515625 54.53125 214.769531 54.152344 C 215.023438 53.769531 215.3125 53.417969 215.636719 53.09375 L 219.910156 48.820312 C 220.234375 48.5 220.585938 48.210938 220.964844 47.957031 C 221.34375 47.703125 221.746094 47.488281 222.167969 47.3125 C 222.589844 47.140625 223.027344 47.007812 223.476562 46.917969 C 223.921875 46.828125 224.375 46.785156 224.832031 46.785156 C 225.289062 46.785156 225.742188 46.828125 226.191406 46.917969 C 226.640625 47.007812 227.074219 47.140625 227.496094 47.3125 C 227.917969 47.488281 228.320312 47.703125 228.699219 47.957031 C 229.082031 48.210938 229.433594 48.5 229.757812 48.820312 Z M 276.066406 95.128906 "
        fill-opacity="1" fill-rule="nonzero" />
    <path fill="#ffffff"
        d="M 214.742188 168.445312 L 231.167969 152.027344 L 323.921875 244.84375 L 307.492188 261.261719 Z M 214.742188 168.445312 "
        fill-opacity="1" fill-rule="nonzero" />
    <path fill="#ffffff"
        d="M 249.867188 110.332031 C 250.191406 110.65625 250.480469 111.007812 250.734375 111.386719 C 250.988281 111.765625 251.203125 112.167969 251.375 112.589844 C 251.550781 113.011719 251.683594 113.449219 251.773438 113.894531 C 251.863281 114.34375 251.90625 114.796875 251.90625 115.253906 C 251.90625 115.710938 251.863281 116.164062 251.773438 116.613281 C 251.683594 117.0625 251.550781 117.496094 251.375 117.917969 C 251.203125 118.339844 250.988281 118.742188 250.734375 119.121094 C 250.480469 119.503906 250.191406 119.855469 249.867188 120.179688 L 222.429688 147.628906 L 201.609375 168.460938 L 182.878906 187.179688 C 182.554688 187.503906 182.203125 187.792969 181.824219 188.046875 C 181.441406 188.300781 181.039062 188.515625 180.617188 188.691406 C 180.195312 188.867188 179.757812 189 179.308594 189.089844 C 178.859375 189.179688 178.40625 189.222656 177.949219 189.222656 C 177.492188 189.222656 177.039062 189.179688 176.589844 189.089844 C 176.140625 189 175.703125 188.867188 175.28125 188.691406 C 174.859375 188.515625 174.457031 188.300781 174.074219 188.046875 C 173.695312 187.792969 173.34375 187.503906 173.019531 187.179688 L 137.742188 151.867188 C 137.417969 151.542969 137.128906 151.191406 136.875 150.8125 C 136.621094 150.429688 136.40625 150.027344 136.230469 149.605469 C 136.054688 149.183594 135.921875 148.746094 135.832031 148.296875 C 135.742188 147.847656 135.699219 147.394531 135.699219 146.9375 C 135.699219 146.480469 135.742188 146.027344 135.832031 145.578125 C 135.921875 145.128906 136.054688 144.691406 136.230469 144.269531 C 136.40625 143.847656 136.621094 143.445312 136.875 143.066406 C 137.128906 142.683594 137.417969 142.332031 137.742188 142.007812 L 204.742188 75.007812 C 205.066406 74.683594 205.417969 74.394531 205.800781 74.140625 C 206.179688 73.886719 206.582031 73.671875 207.003906 73.496094 C 207.429688 73.320312 207.863281 73.1875 208.3125 73.097656 C 208.761719 73.007812 209.214844 72.964844 209.671875 72.964844 C 210.132812 72.964844 210.585938 73.007812 211.035156 73.097656 C 211.484375 73.1875 211.917969 73.320312 212.339844 73.496094 C 212.765625 73.671875 213.164062 73.886719 213.546875 74.140625 C 213.925781 74.394531 214.277344 74.683594 214.601562 75.007812 Z M 249.867188 110.332031 "
        fill-opacity="1" fill-rule="nonzero" />
    <g clip-path="url(#2c86ef1aa4)">
        <path fill="#13a800"
            d="M 337.074219 244.820312 L 307.511719 274.386719 L 208.167969 175.046875 L 189.4375 193.765625 C 187.363281 195.851562 184.898438 197.257812 182.042969 197.980469 C 182.347656 198.714844 182.597656 199.472656 182.792969 200.246094 C 182.988281 201.019531 183.125 201.804688 183.207031 202.597656 C 183.285156 203.390625 183.304688 204.1875 183.269531 204.984375 C 183.230469 205.78125 183.132812 206.570312 182.980469 207.355469 C 182.824219 208.136719 182.613281 208.90625 182.347656 209.65625 C 182.082031 210.410156 181.757812 211.136719 181.386719 211.84375 C 181.011719 212.546875 180.585938 213.222656 180.113281 213.863281 C 179.640625 214.503906 179.121094 215.109375 178.558594 215.675781 L 174.285156 219.949219 C 173.910156 220.324219 173.515625 220.683594 173.101562 221.019531 C 172.691406 221.359375 172.265625 221.675781 171.820312 221.972656 C 171.378906 222.265625 170.921875 222.539062 170.453125 222.792969 C 169.984375 223.042969 169.503906 223.269531 169.011719 223.472656 C 168.519531 223.675781 168.019531 223.855469 167.507812 224.011719 C 167 224.164062 166.484375 224.296875 165.960938 224.398438 C 165.4375 224.503906 164.914062 224.582031 164.382812 224.632812 C 163.851562 224.683594 163.320312 224.710938 162.789062 224.710938 C 162.257812 224.710938 161.726562 224.683594 161.195312 224.632812 C 160.664062 224.582031 160.140625 224.503906 159.617188 224.398438 C 159.09375 224.296875 158.578125 224.164062 158.070312 224.011719 C 157.558594 223.855469 157.058594 223.675781 156.566406 223.472656 C 156.074219 223.269531 155.59375 223.042969 155.125 222.792969 C 154.65625 222.539062 154.199219 222.265625 153.757812 221.972656 C 153.3125 221.675781 152.886719 221.359375 152.476562 221.019531 C 152.0625 220.683594 151.671875 220.324219 151.292969 219.949219 L 104.949219 173.628906 C 104.574219 173.253906 104.214844 172.859375 103.878906 172.445312 C 103.542969 172.035156 103.226562 171.609375 102.929688 171.164062 C 102.632812 170.722656 102.363281 170.265625 102.109375 169.796875 C 101.859375 169.328125 101.632812 168.847656 101.429688 168.355469 C 101.226562 167.863281 101.046875 167.363281 100.890625 166.855469 C 100.738281 166.34375 100.609375 165.828125 100.503906 165.308594 C 100.402344 164.785156 100.324219 164.261719 100.273438 163.730469 C 100.21875 163.203125 100.191406 162.671875 100.191406 162.136719 C 100.191406 161.605469 100.21875 161.074219 100.273438 160.546875 C 100.324219 160.015625 100.402344 159.492188 100.503906 158.96875 C 100.609375 158.445312 100.738281 157.929688 100.890625 157.421875 C 101.046875 156.914062 101.226562 156.414062 101.429688 155.921875 C 101.632812 155.429688 101.859375 154.949219 102.109375 154.480469 C 102.363281 154.007812 102.632812 153.554688 102.929688 153.109375 C 103.226562 152.667969 103.542969 152.242188 103.878906 151.832031 C 104.214844 151.417969 104.574219 151.023438 104.949219 150.648438 L 109.222656 146.375 C 109.789062 145.8125 110.394531 145.292969 111.035156 144.820312 C 111.675781 144.347656 112.351562 143.921875 113.054688 143.546875 C 113.761719 143.175781 114.488281 142.851562 115.242188 142.585938 C 115.992188 142.320312 116.761719 142.109375 117.542969 141.953125 C 118.328125 141.800781 119.117188 141.703125 119.914062 141.664062 C 120.710938 141.628906 121.507812 141.648438 122.300781 141.726562 C 123.09375 141.808594 123.878906 141.945312 124.652344 142.140625 C 125.425781 142.335938 126.183594 142.585938 126.917969 142.890625 C 127.65625 140.039062 129.0625 137.574219 131.148438 135.496094 L 198.125 68.445312 C 200.210938 66.363281 202.679688 64.949219 205.535156 64.207031 C 205.226562 63.472656 204.976562 62.714844 204.785156 61.941406 C 204.589844 61.167969 204.453125 60.386719 204.375 59.59375 C 204.292969 58.796875 204.273438 58.003906 204.3125 57.207031 C 204.351562 56.410156 204.445312 55.621094 204.601562 54.839844 C 204.753906 54.054688 204.964844 53.289062 205.230469 52.539062 C 205.5 51.785156 205.820312 51.058594 206.191406 50.355469 C 206.566406 49.648438 206.992188 48.976562 207.464844 48.335938 C 207.9375 47.691406 208.457031 47.089844 209.015625 46.523438 L 213.335938 42.261719 C 213.714844 41.882812 214.109375 41.527344 214.519531 41.1875 C 214.929688 40.851562 215.359375 40.535156 215.800781 40.238281 C 216.242188 39.941406 216.699219 39.667969 217.167969 39.417969 C 217.636719 39.167969 218.121094 38.941406 218.609375 38.738281 C 219.101562 38.53125 219.605469 38.351562 220.113281 38.199219 C 220.621094 38.042969 221.140625 37.914062 221.660156 37.8125 C 222.183594 37.707031 222.710938 37.628906 223.238281 37.578125 C 223.769531 37.523438 224.300781 37.5 224.832031 37.5 C 225.367188 37.5 225.898438 37.523438 226.425781 37.578125 C 226.957031 37.628906 227.480469 37.707031 228.003906 37.8125 C 228.527344 37.914062 229.042969 38.042969 229.550781 38.199219 C 230.0625 38.351562 230.5625 38.53125 231.054688 38.738281 C 231.546875 38.941406 232.027344 39.167969 232.496094 39.417969 C 232.964844 39.667969 233.421875 39.941406 233.867188 40.238281 C 234.308594 40.535156 234.734375 40.851562 235.148438 41.1875 C 235.558594 41.527344 235.953125 41.882812 236.328125 42.261719 L 282.636719 88.59375 C 283.015625 88.96875 283.371094 89.363281 283.710938 89.773438 C 284.046875 90.1875 284.363281 90.613281 284.660156 91.058594 C 284.957031 91.5 285.230469 91.957031 285.480469 92.425781 C 285.730469 92.894531 285.957031 93.375 286.164062 93.867188 C 286.367188 94.359375 286.546875 94.859375 286.699219 95.371094 C 286.855469 95.878906 286.984375 96.394531 287.085938 96.917969 C 287.191406 97.441406 287.269531 97.964844 287.320312 98.496094 C 287.375 99.027344 287.398438 99.558594 287.398438 100.089844 C 287.398438 100.621094 287.375 101.152344 287.320312 101.683594 C 287.269531 102.210938 287.191406 102.738281 287.085938 103.261719 C 286.984375 103.78125 286.855469 104.300781 286.699219 104.808594 C 286.546875 105.316406 286.367188 105.820312 286.164062 106.3125 C 285.957031 106.800781 285.730469 107.285156 285.480469 107.753906 C 285.230469 108.222656 284.957031 108.679688 284.660156 109.121094 C 284.363281 109.5625 284.046875 109.992188 283.710938 110.402344 C 283.371094 110.816406 283.015625 111.207031 282.636719 111.585938 L 278.363281 115.859375 C 277.796875 116.421875 277.195312 116.9375 276.550781 117.414062 C 275.910156 117.886719 275.234375 118.308594 274.53125 118.683594 C 273.828125 119.058594 273.097656 119.378906 272.347656 119.648438 C 271.59375 119.914062 270.828125 120.125 270.042969 120.28125 C 269.261719 120.433594 268.46875 120.53125 267.671875 120.566406 C 266.875 120.605469 266.082031 120.585938 265.285156 120.503906 C 264.492188 120.425781 263.707031 120.289062 262.933594 120.09375 C 262.160156 119.898438 261.40625 119.648438 260.667969 119.34375 C 259.933594 122.191406 258.523438 124.660156 256.441406 126.738281 L 237.722656 145.492188 Z M 307.511719 261.242188 L 323.941406 244.820312 L 231.148438 152.042969 L 214.730469 168.460938 Z M 276.066406 104.988281 C 276.390625 104.664062 276.679688 104.3125 276.933594 103.933594 C 277.1875 103.554688 277.402344 103.152344 277.578125 102.726562 C 277.753906 102.304688 277.886719 101.871094 277.976562 101.421875 C 278.0625 100.972656 278.109375 100.519531 278.109375 100.058594 C 278.109375 99.601562 278.0625 99.148438 277.976562 98.699219 C 277.886719 98.25 277.753906 97.816406 277.578125 97.390625 C 277.402344 96.96875 277.1875 96.566406 276.933594 96.1875 C 276.679688 95.804688 276.390625 95.453125 276.066406 95.128906 L 229.757812 48.820312 C 229.433594 48.5 229.082031 48.210938 228.699219 47.957031 C 228.320312 47.703125 227.917969 47.488281 227.496094 47.3125 C 227.074219 47.140625 226.640625 47.007812 226.191406 46.917969 C 225.742188 46.828125 225.289062 46.785156 224.832031 46.785156 C 224.375 46.785156 223.921875 46.828125 223.476562 46.917969 C 223.027344 47.007812 222.589844 47.140625 222.167969 47.3125 C 221.746094 47.488281 221.34375 47.703125 220.964844 47.957031 C 220.585938 48.210938 220.234375 48.5 219.910156 48.820312 L 215.636719 53.09375 C 215.3125 53.417969 215.023438 53.769531 214.769531 54.152344 C 214.515625 54.53125 214.300781 54.933594 214.125 55.355469 C 213.949219 55.777344 213.816406 56.214844 213.726562 56.664062 C 213.636719 57.113281 213.59375 57.566406 213.59375 58.023438 C 213.59375 58.480469 213.636719 58.9375 213.726562 59.382812 C 213.816406 59.832031 213.949219 60.269531 214.125 60.691406 C 214.300781 61.117188 214.515625 61.515625 214.769531 61.898438 C 215.023438 62.277344 215.3125 62.628906 215.636719 62.953125 L 261.992188 109.25 C 262.316406 109.574219 262.667969 109.863281 263.046875 110.117188 C 263.429688 110.375 263.828125 110.589844 264.253906 110.761719 C 264.675781 110.9375 265.113281 111.070312 265.5625 111.160156 C 266.007812 111.25 266.464844 111.292969 266.921875 111.292969 C 267.378906 111.292969 267.832031 111.25 268.28125 111.160156 C 268.730469 111.070312 269.167969 110.9375 269.589844 110.761719 C 270.011719 110.589844 270.414062 110.375 270.792969 110.117188 C 271.175781 109.863281 271.527344 109.574219 271.851562 109.25 Z M 251.914062 115.300781 C 251.914062 114.375 251.742188 113.488281 251.386719 112.632812 C 251.03125 111.78125 250.527344 111.027344 249.867188 110.378906 L 214.566406 75.066406 C 214.246094 74.742188 213.890625 74.453125 213.511719 74.199219 C 213.132812 73.941406 212.730469 73.726562 212.304688 73.554688 C 211.882812 73.378906 211.449219 73.246094 211 73.15625 C 210.550781 73.066406 210.097656 73.023438 209.636719 73.023438 C 209.179688 73.023438 208.726562 73.066406 208.277344 73.15625 C 207.828125 73.246094 207.394531 73.378906 206.96875 73.554688 C 206.546875 73.726562 206.144531 73.941406 205.765625 74.199219 C 205.382812 74.453125 205.03125 74.742188 204.710938 75.066406 L 137.742188 142.007812 C 137.417969 142.332031 137.128906 142.683594 136.878906 143.0625 C 136.625 143.445312 136.410156 143.847656 136.234375 144.269531 C 136.058594 144.691406 135.925781 145.125 135.839844 145.574219 C 135.75 146.023438 135.703125 146.476562 135.703125 146.933594 C 135.703125 147.390625 135.75 147.84375 135.839844 148.289062 C 135.925781 148.738281 136.058594 149.175781 136.234375 149.597656 C 136.410156 150.019531 136.625 150.421875 136.878906 150.800781 C 137.128906 151.179688 137.417969 151.53125 137.742188 151.855469 L 173.054688 187.167969 C 173.378906 187.492188 173.730469 187.78125 174.109375 188.035156 C 174.492188 188.289062 174.894531 188.503906 175.316406 188.679688 C 175.738281 188.855469 176.175781 188.988281 176.625 189.078125 C 177.074219 189.167969 177.527344 189.210938 177.984375 189.210938 C 178.441406 189.210938 178.894531 189.167969 179.34375 189.078125 C 179.792969 188.988281 180.230469 188.855469 180.652344 188.679688 C 181.074219 188.503906 181.476562 188.289062 181.855469 188.035156 C 182.238281 187.78125 182.589844 187.492188 182.914062 187.167969 L 201.609375 168.460938 L 222.441406 147.628906 L 249.867188 120.179688 C 250.519531 119.535156 251.023438 118.789062 251.378906 117.945312 C 251.730469 117.097656 251.910156 116.21875 251.914062 115.300781 Z M 171.953125 209.148438 C 172.273438 208.828125 172.566406 208.472656 172.820312 208.09375 C 173.074219 207.714844 173.289062 207.3125 173.464844 206.886719 C 173.640625 206.464844 173.769531 206.03125 173.859375 205.582031 C 173.949219 205.132812 173.996094 204.679688 173.996094 204.21875 C 173.996094 203.761719 173.949219 203.308594 173.859375 202.859375 C 173.769531 202.410156 173.640625 201.976562 173.464844 201.550781 C 173.289062 201.128906 173.074219 200.726562 172.820312 200.347656 C 172.566406 199.96875 172.273438 199.613281 171.953125 199.292969 L 125.640625 152.9375 C 125.320312 152.613281 124.96875 152.324219 124.585938 152.070312 C 124.207031 151.816406 123.804688 151.601562 123.382812 151.425781 C 122.960938 151.253906 122.527344 151.121094 122.078125 151.03125 C 121.628906 150.941406 121.175781 150.898438 120.71875 150.898438 C 120.261719 150.898438 119.808594 150.941406 119.359375 151.03125 C 118.914062 151.121094 118.476562 151.253906 118.054688 151.425781 C 117.632812 151.601562 117.230469 151.816406 116.851562 152.070312 C 116.46875 152.324219 116.117188 152.613281 115.796875 152.9375 L 111.523438 157.210938 C 111.199219 157.53125 110.910156 157.882812 110.65625 158.265625 C 110.398438 158.644531 110.183594 159.046875 110.011719 159.46875 C 109.835938 159.894531 109.703125 160.328125 109.613281 160.777344 C 109.523438 161.226562 109.480469 161.679688 109.480469 162.136719 C 109.480469 162.597656 109.523438 163.050781 109.613281 163.5 C 109.703125 163.949219 109.835938 164.382812 110.011719 164.804688 C 110.183594 165.230469 110.398438 165.632812 110.65625 166.011719 C 110.910156 166.390625 111.199219 166.746094 111.523438 167.066406 L 157.832031 213.363281 C 158.15625 213.6875 158.507812 213.976562 158.886719 214.230469 C 159.265625 214.484375 159.667969 214.699219 160.089844 214.875 C 160.511719 215.046875 160.949219 215.179688 161.394531 215.269531 C 161.84375 215.359375 162.296875 215.402344 162.753906 215.402344 C 163.210938 215.402344 163.664062 215.359375 164.113281 215.269531 C 164.5625 215.179688 164.996094 215.046875 165.417969 214.875 C 165.839844 214.699219 166.242188 214.484375 166.621094 214.230469 C 167.003906 213.976562 167.355469 213.6875 167.679688 213.363281 Z M 171.953125 209.148438 "
            fill-opacity="1" fill-rule="nonzero" />
    </g>
    <g clip-path="url(#a17b3aebb8)">
        <path fill="#13a800"
            d="M 202.1875 302.253906 L 202.1875 334.769531 L 37.878906 334.769531 L 37.878906 302.253906 L 58.59375 302.253906 C 58.730469 301.453125 58.902344 300.65625 59.105469 299.867188 C 59.3125 299.078125 59.550781 298.300781 59.828125 297.53125 C 60.101562 296.765625 60.40625 296.011719 60.746094 295.269531 C 61.089844 294.527344 61.460938 293.804688 61.863281 293.09375 C 62.269531 292.386719 62.703125 291.699219 63.164062 291.027344 C 63.628906 290.359375 64.121094 289.710938 64.644531 289.082031 C 65.164062 288.457031 65.714844 287.851562 66.285156 287.273438 C 66.859375 286.695312 67.460938 286.144531 68.082031 285.617188 C 68.703125 285.089844 69.347656 284.59375 70.015625 284.121094 C 70.683594 283.652344 71.367188 283.214844 72.070312 282.804688 C 72.777344 282.394531 73.5 282.015625 74.238281 281.671875 C 74.972656 281.324219 75.726562 281.011719 76.492188 280.730469 C 77.257812 280.449219 78.035156 280.203125 78.820312 279.992188 C 79.609375 279.78125 80.402344 279.601562 81.207031 279.460938 C 82.007812 279.316406 82.816406 279.210938 83.628906 279.140625 C 84.441406 279.066406 85.253906 279.03125 86.070312 279.03125 L 154 279.03125 C 154.8125 279.03125 155.628906 279.066406 156.441406 279.140625 C 157.253906 279.210938 158.058594 279.316406 158.863281 279.460938 C 159.664062 279.601562 160.460938 279.78125 161.246094 279.992188 C 162.035156 280.203125 162.808594 280.449219 163.574219 280.730469 C 164.339844 281.011719 165.09375 281.324219 165.832031 281.671875 C 166.570312 282.015625 167.289062 282.394531 167.996094 282.804688 C 168.699219 283.214844 169.386719 283.652344 170.050781 284.121094 C 170.71875 284.59375 171.363281 285.089844 171.984375 285.617188 C 172.609375 286.144531 173.207031 286.695312 173.78125 287.273438 C 174.355469 287.851562 174.902344 288.457031 175.421875 289.082031 C 175.945312 289.710938 176.4375 290.359375 176.902344 291.027344 C 177.367188 291.699219 177.800781 292.386719 178.203125 293.09375 C 178.609375 293.804688 178.980469 294.527344 179.320312 295.269531 C 179.660156 296.011719 179.96875 296.765625 180.242188 297.53125 C 180.515625 298.300781 180.753906 299.078125 180.960938 299.867188 C 181.167969 300.65625 181.335938 301.453125 181.472656 302.253906 Z M 192.898438 325.480469 L 192.898438 311.546875 L 47.167969 311.546875 L 47.167969 325.480469 Z M 68.070312 302.253906 L 171.996094 302.253906 C 171.742188 301.265625 171.40625 300.300781 170.992188 299.367188 C 170.578125 298.433594 170.089844 297.535156 169.527344 296.683594 C 168.964844 295.828125 168.332031 295.023438 167.636719 294.273438 C 166.945312 293.523438 166.191406 292.835938 165.382812 292.210938 C 164.574219 291.582031 163.71875 291.027344 162.816406 290.542969 C 161.917969 290.058594 160.980469 289.648438 160.015625 289.320312 C 159.046875 288.988281 158.058594 288.738281 157.046875 288.570312 C 156.039062 288.402344 155.023438 288.320312 154 288.320312 L 86.070312 288.320312 C 85.046875 288.320312 84.027344 288.402344 83.019531 288.570312 C 82.011719 288.738281 81.023438 288.988281 80.054688 289.320312 C 79.085938 289.648438 78.152344 290.058594 77.25 290.542969 C 76.347656 291.027344 75.496094 291.582031 74.683594 292.210938 C 73.875 292.835938 73.125 293.523438 72.429688 294.273438 C 71.734375 295.023438 71.105469 295.828125 70.542969 296.683594 C 69.980469 297.535156 69.492188 298.433594 69.074219 299.367188 C 68.660156 300.300781 68.324219 301.265625 68.070312 302.253906 Z M 68.070312 302.253906 "
            fill-opacity="1" fill-rule="nonzero" />
    </g>
</svg>